# xmcd
#
# Track frame offsets:
#	225
#	16195
#	25440
#	40064
#	55864
#	65147
#	76116
#	90054
#	102312
#	109807
#	120994
#	129547
#	143034
#	158664
#	171347
#	183037
#	196170
#	211469
#	222510
#	231649
#	243896
#	257081
#	269524
#	282789
#	292932
#	310570
#	324510
#	335985
#
# Disc length: 4706 seconds
#
# Revision: 0
# Processed by: cddbd v1.5.2PL0 Copyright (c) Steve Scherf et al.
# Submitted via: EasyCDDAExtractor 15.2.5.1
#
DISCID=8f125f1c
DTITLE=Various Artist - TIME TO FLY (KPM)
DYEAR=1900
DGENRE=
TTITLE0=KEITH MANSFIELD - THE GREAT OUTDOORS
TTITLE1=JAMES CLARKE - HOLIDAY PEOPLE (1)
TTITLE2=KEITH MANSFIELD - SUN LOVER
TTITLE3=KEITH MANSFIELD - HOLLYWOOD PREMIERE
TTITLE4=JAMES CLARKE - SOFT MEMORIES
TTITLE5=NEIL RICHARDSON - FUN IN THE SUN
TTITLE6=KEITH MANSFIELD - LIFE OF LEISURE
TTITLE7=DAVID LINDUP - SUNSEEKERS
TTITLE8=JAMES CLARKE - FRIENDLY FACES
TTITLE9=KEITH MANSFIELD - WHISTLE STOP TOUR
TTITLE10=NEIL RICHARDSON - BUSY SPECTACLE
TTITLE11=KEITH MANSFIELD - THE LOVING TOUCH
TTITLE12=KEITH MANSFIELD - HUSKY BIRDSONG
TTITLE13=STEVE GRAY - TIME TO FLY
TTITLE14=NEIL RICHARDSON - JEWEL OF EVENING
TTITLE15=DAVID GOLD - SILK STREAM
TTITLE16=DAVID GOLD and GORDON REES - FORBIDDEN FRUIT
TTITLE17=STEVE GRAY - A TENDER TOUCH
TTITLE18=JAMES CLARKE - SUMMER SEASON
TTITLE19=DICK DOERSCHUK - BALENCIAGA
TTITLE20=DICK DOERSCHUK - PARADISE FOUND
TTITLE21=KEITH MANSFIELD - TOWARDS THE SUN
TTITLE22=JAMES CLARKE - ELEGANCE
TTITLE23=JAMES CLARKE - GENTLE BREEZE
TTITLE24=JAMES CLARKE - SUMMER DREAMS
TTITLE25=JAMES CLARKE - VIOLIN SERENADE
TTITLE26=JAMES CLARKE - LIFE OF LUXURY
TTITLE27=SHERWIN - MASCHWITZ - A NIGHTINGALE SANG IN BERKELEY SQUARE
EXTD=
EXTT0=
EXTT1=
EXTT2=
EXTT3=
EXTT4=
EXTT5=
EXTT6=
EXTT7=
EXTT8=
EXTT9=
EXTT10=
EXTT11=
EXTT12=
EXTT13=
EXTT14=
EXTT15=
EXTT16=
EXTT17=
EXTT18=
EXTT19=
EXTT20=
EXTT21=
EXTT22=
EXTT23=
EXTT24=
EXTT25=
EXTT26=
EXTT27=
PLAYORDER=
